<svg width="274" height="570" viewBox="0 0 274 570" fill="none" xmlns="http://www.w3.org/2000/svg">
<mask id="mask0_53_1363" style="mask-type:alpha" maskUnits="userSpaceOnUse" x="0" y="0" width="274" height="570">
<path d="M0 10C0 4.47715 4.47715 0 10 0H264C269.523 0 274 4.47715 274 10V560C274 565.523 269.523 570 264 570H10C4.47715 570 0 565.523 0 560V10Z" fill="url(#paint0_linear_53_1363)"/>
</mask>
<g mask="url(#mask0_53_1363)">
<path d="M0 0H274V570H0V0Z" fill="#8899FF"/>
<path d="M68 380.333C48 344.396 26 334.413 -44 322.434V615.919H214C206.667 592.627 190.8 542.848 186 530.07C180 514.098 146 478.161 120 466.182C94 454.203 88 416.27 68 380.333Z" fill="#7273FF"/>
<path d="M148 544.046C116 556.025 108 581.979 94 617.916H298L288 512.102L266 478.161C260.667 468.179 246.8 448.613 234 450.21C221.2 451.807 212.667 462.855 210 468.179C200 489.475 173.6 534.462 148 544.046Z" fill="#575B7D"/>
<ellipse cx="2" cy="478.161" rx="68" ry="67.8809" fill="url(#paint1_linear_53_1363)"/>
</g>
<defs>
<linearGradient id="paint0_linear_53_1363" x1="7.84778e-06" y1="570" x2="185.725" y2="-6.24991" gradientUnits="userSpaceOnUse">
<stop offset="0.348958" stop-color="#8894FF"/>
</linearGradient>
<linearGradient id="paint1_linear_53_1363" x1="21.1011" y1="410.28" x2="-16.9772" y2="546.077" gradientUnits="userSpaceOnUse">
<stop offset="0.2138" stop-color="#FFFA7B"/>
<stop offset="0.9631" stop-color="#3D3D67"/>
</linearGradient>
</defs>
</svg>
