<svg width="80" height="80" viewBox="0 0 80 80" fill="none" xmlns="http://www.w3.org/2000/svg">
<path d="M40 80C62.0914 80 80 62.0914 80 40C80 17.9086 62.0914 0 40 0C17.9086 0 0 17.9086 0 40C0 62.0914 17.9086 80 40 80Z" fill="#8899FF"/>
<path d="M48.464 79.167C49.232 79.017 49.994 78.846 50.752 78.652C52.037 78.2935 53.3032 77.871 54.546 77.386C55.7914 76.904 57.0119 76.36 58.203 75.756C62.9777 73.3237 67.2157 69.958 70.666 65.858C74.1193 61.7595 76.7152 57.0098 78.3 51.89C78.638 50.773 78.927 49.641 79.167 48.499L55.374 24.698C53.3645 22.6783 50.9752 21.0762 48.3439 19.9838C45.7125 18.8914 42.8911 18.3304 40.042 18.333C37.1911 18.3304 34.3679 18.8914 31.7346 19.9837C29.1013 21.076 26.7099 22.6782 24.698 24.698C16.212 33.187 16.212 46.903 24.698 55.392L48.464 79.167Z" fill="#7273FF"/>
<path d="M40.003 18.333C42.8476 18.3303 45.6646 18.8901 48.2921 19.98C50.9195 21.07 53.3056 22.6686 55.313 24.684C63.784 33.155 63.784 46.842 55.313 55.314C46.843 63.784 33.157 63.784 24.686 55.314C16.216 46.842 16.216 33.155 24.686 24.684C26.6948 22.6686 29.0821 21.07 31.7107 19.9803C34.3393 18.8905 37.1574 18.3301 40.003 18.333ZM49.868 33.333C49.552 33.361 49.246 33.483 48.996 33.677L36.828 42.807L31.187 37.165C29.963 35.89 27.557 38.297 28.831 39.521L35.494 46.184C36.054 46.744 37.033 46.814 37.667 46.34L50.993 36.345C52.115 35.529 51.423 33.352 50.037 33.332C49.9804 33.3291 49.9236 33.3291 49.867 33.332L49.868 33.333Z" fill="#FFFA7B"/>
</svg>
