<svg width="40" height="40" viewBox="0 0 40 40" fill="none" xmlns="http://www.w3.org/2000/svg">
<path d="M20 40C31.0457 40 40 31.0457 40 20C40 8.9543 31.0457 0 20 0C8.9543 0 0 8.9543 0 20C0 31.0457 8.9543 40 20 40Z" fill="#575B7D"/>
<path d="M24.995 18.005H20.997V24.003H18.997V18.005H15C14.7348 18.005 14.4804 18.1104 14.2929 18.2979C14.1054 18.4854 14 18.7398 14 19.005V29C14 29.2652 14.1054 29.5196 14.2929 29.7071C14.4804 29.8946 14.7348 30 15 30H24.995C25.2602 30 25.5146 29.8946 25.7021 29.7071C25.8896 29.5196 25.995 29.2652 25.995 29V19.005C25.995 18.7398 25.8896 18.4854 25.7021 18.2979C25.5146 18.1104 25.2602 18.005 24.995 18.005ZM18.998 27.001H16.998V25.002H18.998V27.002V27.001ZM20.998 15.826C21.6649 15.5901 22.227 15.1261 22.5849 14.5158C22.9428 13.9056 23.0734 13.1885 22.9538 12.4913C22.8341 11.7941 22.4718 11.1616 21.9309 10.7057C21.3901 10.2497 20.7054 9.99963 19.998 9.99963C19.2906 9.99963 18.6059 10.2497 18.0651 10.7057C17.5242 11.1616 17.1619 11.7941 17.0422 12.4913C16.9226 13.1885 17.0532 13.9056 17.4111 14.5158C17.769 15.1261 18.3311 15.5901 18.998 15.826V18.006H20.998V15.826Z" fill="white"/>
</svg>
