<svg width="40" height="40" viewBox="0 0 40 40" fill="none" xmlns="http://www.w3.org/2000/svg">
<path d="M20 40C31.0457 40 40 31.0457 40 20C40 8.9543 31.0457 0 20 0C8.9543 0 0 8.9543 0 20C0 31.0457 8.9543 40 20 40Z" fill="#FFFA7B"/>
<path d="M26.666 13H13.334C12.8962 12.9999 12.4627 13.086 12.0582 13.2534C11.6537 13.4209 11.2862 13.6663 10.9766 13.9759C10.667 14.2854 10.4214 14.6528 10.2538 15.0573C10.0862 15.4617 10 15.8952 10 16.333V23.526C9.9899 24.2185 10.1887 24.8981 10.5704 25.476C10.9521 26.0539 11.4991 26.5035 12.14 26.766C13.378 27.266 14.796 26.948 15.7 25.966L18.52 23H21.48L24.3 25.966C24.7412 26.4462 25.3186 26.7801 25.9548 26.9231C26.591 27.0661 27.2558 27.0113 27.86 26.766C28.5009 26.5035 29.0479 26.0539 29.4296 25.476C29.8113 24.8981 30.0101 24.2185 30 23.526V16.333C30 15.8952 29.9138 15.4617 29.7462 15.0573C29.5786 14.6528 29.333 14.2854 29.0234 13.9759C28.7138 13.6663 28.3463 13.4209 27.9418 13.2534C27.5373 13.086 27.1038 12.9999 26.666 13ZM17.333 19H16V20.333C15.9933 20.5053 15.9202 20.6683 15.7959 20.7879C15.6717 20.9074 15.5059 20.9742 15.3335 20.9742C15.1611 20.9742 14.9953 20.9074 14.8711 20.7879C14.7468 20.6683 14.6737 20.5053 14.667 20.333V19H13.334C13.1571 19 12.9874 18.9297 12.8624 18.8046C12.7373 18.6796 12.667 18.5099 12.667 18.333C12.667 18.1561 12.7373 17.9864 12.8624 17.8614C12.9874 17.7363 13.1571 17.666 13.334 17.666H14.667V16.333C14.6635 16.2433 14.6782 16.1538 14.7101 16.0699C14.742 15.986 14.7906 15.9094 14.8528 15.8448C14.9151 15.7801 14.9897 15.7286 15.0723 15.6935C15.1549 15.6583 15.2437 15.6402 15.3335 15.6402C15.4233 15.6402 15.5121 15.6583 15.5947 15.6935C15.6773 15.7286 15.752 15.7801 15.8142 15.8448C15.8764 15.9094 15.925 15.986 15.9569 16.0699C15.9888 16.1538 16.0035 16.2433 16 16.333V17.666H17.333C17.5099 17.666 17.6796 17.7363 17.8046 17.8614C17.9297 17.9864 18 18.1561 18 18.333C18 18.5099 17.9297 18.6796 17.8046 18.8046C17.6796 18.9297 17.5099 19 17.333 19ZM24.666 21C24.3115 21.0069 23.9592 20.943 23.6296 20.812C23.3001 20.6811 23 20.4858 22.7469 20.2375C22.4937 19.9892 22.2926 19.693 22.1553 19.366C22.0181 19.0391 21.9474 18.6881 21.9474 18.3335C21.9474 17.9789 22.0181 17.6279 22.1553 17.301C22.2926 16.974 22.4937 16.6778 22.7469 16.4295C23 16.1812 23.3001 15.9859 23.6296 15.855C23.9592 15.724 24.3115 15.6601 24.666 15.667C25.3643 15.6805 26.0294 15.9674 26.5184 16.466C27.0074 16.9646 27.2814 17.6351 27.2814 18.3335C27.2814 19.0319 27.0074 19.7024 26.5184 20.201C26.0294 20.6996 25.3643 20.9865 24.666 21ZM26 18.333C26 18.6867 25.8595 19.0258 25.6094 19.2759C25.3593 19.526 25.0202 19.6665 24.6665 19.6665C24.3128 19.6665 23.9737 19.526 23.7236 19.2759C23.4735 19.0258 23.333 18.6867 23.333 18.333C23.333 17.9793 23.4735 17.6402 23.7236 17.3901C23.9737 17.14 24.3128 16.9995 24.6665 16.9995C25.0202 16.9995 25.3593 17.14 25.6094 17.3901C25.8595 17.6402 26 17.9793 26 18.333Z" fill="#575B7D"/>
</svg>
